<svg version="1.2" xmlns="http://www.w3.org/2000/svg" viewBox="0 0 406 576" width="406" height="576">
	<title>SL_032619_19330_60-ai</title>
	<style>
		.s0 { fill: #1a1a1a } 
		.s1 { fill: #ffa800 } 
		.s2 { fill: #ffffff } 
	</style>
	<g id="_Artboards_">
	</g>
	<g id="Layer 1">
		<g id="&lt;Group&gt;" style="opacity: .9">
			<g id="&lt;Group&gt;">
				<g id="&lt;Group&gt;">
					<g id="&lt;Group&gt;">
						<path id="&lt;Path&gt;" class="s0" d="m15.9 576h382.4c-10.3-12.4-19.8-24.5-28.5-36.3-16.2-21.9-29.6-42.8-39.5-62.8-9.3-18.5-15.6-36.4-18.9-53.3-6-31-1.4-59.8 9.3-84.8 10.1-23.6 24.9-44.3 38.6-63.5 24-33.4 41.1-64.1 28.5-88.1-13-24.7-48.6-43.2-82.6-61.2-30.7-16.3-57.6-30.3-60.4-44.8-2.3-11.8 15.8-22.2 33-31 15.7-8.1 29.1-16.8 25.4-24-4.7-8.9-23.4-15-42.1-21.9q-44.5-2.1-89.8-4.3c16.1 6.9 32.8 13.6 33.2 21.9 0.5 8.2-18.1 15.7-38.8 23.7-22.7 8.8-46.7 17.8-50.7 31-3.9 13.2 17 28.8 41.3 45.2 27 18.2 55.6 38.4 56.9 62.2 0.7 12.5-6.4 26.4-18.6 40.1-14.1 16-34.4 32.2-57 50.3-24.6 19.8-51.2 41.1-74.6 65.9-24.5 25.9-44.9 55.7-55.1 89.3-5.4 17.7-8.1 36.8-7.9 56.7 0.2 21.2 3.6 43.7 9.6 67.5 1.9 7.2 4 14.7 6.3 22.2z"/>
						<g id="&lt;Group&gt;">
							<path id="&lt;Path&gt;" class="s1" d="m41 552.5c2.2 7.7 4.8 15.5 7.6 23.5h9.5c-2.9-8.1-5.7-16-8.1-23.8-7.2-23.5-11.8-45.9-13.1-66.9-1.2-19.8 0.4-38.7 4.8-56.4 8.3-33.2 26.9-63 49.8-88.7 21.9-24.7 47.1-45.9 70.5-65.7 21.5-18 40.7-34.2 53.9-50.1 11.4-13.8 17.7-27.6 16.4-40.1-2.5-23.9-32-43.9-59.7-62-25.1-16.5-46.8-31.9-43.5-45.2 3.3-13 26.6-22.2 48.7-31 20.2-8 38.2-15.6 37.4-23.8-0.9-8.3-17.9-15-34.2-21.8q-1.1-0.1-2.2-0.1c16.3 6.8 33.2 13.5 34 21.8 0.7 8.2-17.4 15.8-37.7 23.8-22.2 8.8-45.7 17.9-49.2 31-3.4 13.3 18.1 28.7 43 45.2 27.6 18.1 56.9 38.1 59.1 62.1 1.2 12.4-5.3 26.3-16.9 40-13.4 15.9-32.9 32.1-54.5 50.2-23.8 19.7-49.3 41-71.5 65.7-23.2 25.8-42.3 55.6-51 88.9-4.6 17.7-6.5 36.6-5.5 56.4 1.1 21.1 5.4 43.5 12.4 67z"/>
						</g>
						<g id="&lt;Group&gt;">
							<path id="&lt;Path&gt;" class="s1" d="m287.7 125.5c33.2 18 68 36.7 79.6 61.4 11.4 24.1-7.8 54.8-33.8 88.3-15 19.3-31.1 40.1-42.7 63.7-12.2 25.2-18.7 54.1-14.4 85.4 2.3 17 7.7 35 15.9 53.7 8.9 20.1 21.2 41.2 36.3 63.3 7.7 11.3 16.2 22.9 25.2 34.7h9c-9.4-12-18-23.6-25.9-35-15.3-22.1-27.8-43.1-36.9-63.2-8.5-18.7-14.1-36.6-16.6-53.7-4.6-31.1 1.5-60.1 13.4-85.2 11.3-23.7 27.2-44.4 41.9-63.7 25.6-33.4 44.3-64.2 32.7-88.3-11.9-24.6-46.8-43.3-80.2-61.3-30.1-16.3-56.5-30.4-58.7-44.8-1.7-12 17-22.3 34.7-31.1 16.1-8 30.1-16.6 26.6-23.9-4.3-8.9-22.8-15-41.2-21.9q-1.1-0.1-2.1-0.1c18.3 6.9 36.8 13 41 21.9 3.4 7.3-10.7 15.9-27 23.9-17.8 8.8-36.6 19.1-35 31.1 2 14.3 28.2 28.5 58.2 44.8z"/>
						</g>
						<g id="&lt;Group&gt;">
							<g id="&lt;Group&gt;">
								<path id="&lt;Compound Path&gt;" class="s2" d="m244.2 13.9c4.6 2.5 8.4 5.2 10.2 8.1q-1.1 0-2.3-0.1c-1.9-2.9-5.6-5.6-10.1-8.1q1.1 0 2.2 0.1zm9.9 16.4c-2.1 3-6.2 5.8-11.3 8.6q-1.2-0.1-2.5-0.1c5-2.8 9.2-5.6 11.4-8.6q1.2 0.1 2.4 0.1zm-30.4 17.6c-7.3 3.2-14.5 6.5-21.2 10.1q-1.5-0.1-2.9-0.2c6.8-3.6 14.1-6.8 21.4-10q1.3 0.1 2.7 0.1zm-37.1 21.4c-3.5 3.9-5.2 8.6-4.1 13.1q-1.6 0-3.2-0.1c-1-4.5 0.7-9.2 4.3-13.1q1.5 0.1 3 0.1zm6.7 28.2c6.5 5.7 15 11.3 24.5 17.1q-1.7 0-3.5-0.1c-9.4-5.8-17.9-11.4-24.3-17.1q1.7 0 3.3 0.1zm56.7 36.4c11.1 6.8 21.8 13.8 30.9 21.4q-1.9 0-3.8-0.1c-9.1-7.6-19.8-14.6-30.8-21.4q1.9 0 3.7 0.1zm51.3 45.4c4.2 8.4 5.2 17.8 2.8 27.1q-2.2 0-4.4-0.1c2.5-9.3 1.5-18.7-2.5-27.1q2.1 0 4.1 0.1zm-14.4 58.5c-9.3 11.9-21.2 24.1-33.9 37.3q-2.7-0.1-5.4-0.1c13-13.1 25-25.4 34.5-37.2q2.4 0 4.8 0zm-75.1 82.5c-13.6 17-25.8 35.5-33.9 55.8q-3.4 0-6.7 0.1c8.4-20.3 20.8-38.9 34.7-55.9q3 0 5.9 0zm-44.5 125.6c2 27.3 11.1 56.9 26 88.5q-4.2 0.2-8.5 0.4c-14.6-31.7-23.3-61.4-25.1-88.7q3.8-0.1 7.6-0.2z"/>
							</g>
							<g id="&lt;Group&gt;">
								<path id="&lt;Path&gt;" class="s2" d="m217.6 2.2q4.7 1.9 9.4 3.8-1.1-0.1-2.2-0.1-4.7-1.9-9.4-3.8 1.1 0.1 2.2 0.1z"/>
							</g>
						</g>
					</g>
				</g>
			</g>
		</g>
	</g>
</svg>